<svg width="14.869629" height="14.240723" viewBox="0 0 14.8696 14.2407" fill="none" xmlns="http://www.w3.org/2000/svg" xmlns:xlink="http://www.w3.org/1999/xlink">
	<desc>
			Created with Pixso.
	</desc>
	<defs/>
	<path d="M6.48364 0.690918L5.41431 3.98267C5.28027 4.39478 4.89624 4.67383 4.46313 4.67383L1.00195 4.67383C0.0332031 4.67383 -0.369629 5.91333 0.414062 6.48267L3.21436 8.51709C3.5647 8.77173 3.71143 9.22314 3.57764 9.63525L2.50806 12.927C2.20874 13.8484 3.26318 14.6145 4.04688 14.0452L6.84692 12.0107C7.19751 11.7561 7.67212 11.7561 8.02271 12.0107L10.8228 14.0452C11.6064 14.6145 12.6609 13.8484 12.3616 12.927L11.292 9.63525C11.1582 9.22314 11.3049 8.77173 11.6553 8.51709L14.4556 6.48267C15.2393 5.91333 14.8364 4.67383 13.8677 4.67383L10.4065 4.67383C9.97339 4.67383 9.58936 4.39478 9.45532 3.98267L8.38599 0.690918C8.08643 -0.230225 6.7832 -0.230225 6.48364 0.690918Z" fill="#F14F4F" fill-opacity="1.000000" fill-rule="evenodd"/>
</svg>
